<svg xmlns="http://www.w3.org/2000/svg" xmlns:xlink="http://www.w3.org/1999/xlink" version="1.1" x="0px" y="0px" viewBox="0 0 100 125" enable-background="new 0 0 100 100" xml:space="preserve"><g><g><path d="M98,2v96H2V2H98 M3.9,52.2h5.5h8.5V84v2h2h22.7h14.7h22.7h2v-2V52.2h8.5h5.5l-4.2-3.5L51.3,14.5L50,13.4l-1.3,1.1    L8.1,48.6L3.9,52.2 M100,0H0v100h100V0L100,0z M9.4,50.2L50,16l40.6,34.2H80.1V84H57.4H42.6H19.9V50.2H9.4L9.4,50.2z"/></g></g><text x="0" y="115" fill="#000000" font-size="5px" font-weight="bold" font-family="'Helvetica Neue', Helvetica, Arial-Unicode, Arial, Sans-serif">Created by Guilhem</text><text x="0" y="120" fill="#000000" font-size="5px" font-weight="bold" font-family="'Helvetica Neue', Helvetica, Arial-Unicode, Arial, Sans-serif">from the Noun Project</text></svg>